<?xml version="1.0" encoding="UTF-8"?>
<svg version="1.1" xmlns="http://www.w3.org/2000/svg" width="200" height="200">
<path d="M0 0 C0.78463749 -0.00467997 1.56927498 -0.00935994 2.37768936 -0.01418173 C5.00945133 -0.02615714 7.64069501 -0.01666469 10.27246094 -0.00723267 C12.15816553 -0.01129724 14.04386774 -0.01663848 15.92956543 -0.02316284 C21.05345991 -0.03685582 26.17717346 -0.03152959 31.30107117 -0.02202559 C36.65905247 -0.01443927 42.0170181 -0.02147174 47.375 -0.02618408 C56.37340074 -0.03164463 65.37172765 -0.02444216 74.37011719 -0.01016235 C84.77889548 0.00616471 95.18749749 0.00087642 105.59627151 -0.01564157 C114.52714168 -0.0292479 123.45795873 -0.03118027 132.38883591 -0.02332556 C137.72543986 -0.01864436 143.06196091 -0.01803649 148.39855957 -0.02793503 C153.41529101 -0.03658999 158.43179479 -0.03060967 163.44850159 -0.01325226 C165.29158652 -0.00927955 167.13469056 -0.01043482 168.97776794 -0.01704025 C171.48999611 -0.02521493 174.00149069 -0.01498391 176.51367188 0 C177.2463541 -0.00669217 177.97903633 -0.01338433 178.73392105 -0.02027929 C181.80698355 0.01537395 183.97403011 0.22978121 186.70562744 1.68991661 C188.25683594 3.38095093 188.25683594 3.38095093 188.81933594 6.81845093 C188.25683594 10.38095093 188.25683594 10.38095093 186.14746094 12.61923218 C182.5158643 14.8325431 180.62068733 14.63717534 176.44433594 14.13095093 C175.28289062 14.00204468 174.12144531 13.87313843 172.92480469 13.74032593 C172.044375 13.62173218 171.16394531 13.50313843 170.25683594 13.38095093 C170.26571838 14.15911667 170.27460083 14.93728241 170.28375244 15.73902893 C170.36397748 23.08079228 170.42484008 30.4223424 170.46408463 37.76443005 C170.48493921 41.53889385 170.51321684 45.31299478 170.55859375 49.08724976 C170.60212914 52.73123542 170.62598907 56.37487257 170.63634491 60.01909828 C170.64372263 61.40777382 170.65812994 62.79643077 170.67975616 64.1849575 C170.7088861 66.13315524 170.71047065 68.0817054 170.7109375 70.03012085 C170.71981995 71.13820602 170.72870239 72.2462912 170.737854 73.38795471 C170.127044 77.18854382 168.97609493 78.67717818 166.25683594 81.38095093 C163.35791874 82.00736332 163.35791874 82.00736332 159.92506409 82.00914001 C158.62259735 82.02179398 157.32013062 82.03444794 155.97819519 82.04748535 C154.53664765 82.03616919 153.09510405 82.02434171 151.65356445 82.01205444 C150.13400436 82.01719305 148.61445022 82.0244739 147.09490967 82.03373718 C142.96868533 82.05226883 138.84310626 82.03930129 134.71690869 82.01964688 C130.39906888 82.00327042 126.08127026 82.01207201 121.76341248 82.01716614 C114.51103399 82.02168872 107.25891328 82.0058084 100.0065918 81.97787476 C91.62337027 81.94583408 83.24061398 81.94583331 74.85735947 81.96308953 C66.79274005 81.97895812 58.7282911 81.97221816 50.66367912 81.95515251 C47.23193763 81.94828206 43.80033278 81.94931442 40.36859322 81.95669746 C36.32599734 81.96436331 32.28393028 81.95222489 28.24142456 81.92484856 C26.75837206 81.91796624 25.27527016 81.91786517 23.79221916 81.92506409 C21.76667148 81.93376275 19.74106156 81.91535972 17.71559143 81.89561462 C16.58237237 81.8928077 15.44915331 81.89000078 14.28159428 81.8871088 C10.56914487 81.26587388 8.88817946 80.03183346 6.25683594 77.38095093 C5.65556335 74.47024536 5.65556335 74.47024536 5.68920898 71.05184937 C5.68958664 69.77082336 5.68996429 68.48979736 5.69035339 67.16995239 C5.71588481 65.77673365 5.74196476 64.38352487 5.76855469 62.99032593 C5.77788427 61.56115964 5.7849997 60.13197732 5.78999329 58.70278931 C5.80905238 54.94751565 5.85814162 51.19321435 5.91351318 47.43832397 C5.96473046 43.60422926 5.98751248 39.76997688 6.01269531 35.93563843 C6.06626329 28.41696674 6.15156053 20.89909526 6.25683594 13.38095093 C5.44859375 13.48794312 4.64035156 13.5949353 3.80761719 13.70516968 C2.73898437 13.82505249 1.67035156 13.9449353 0.56933594 14.06845093 C-0.48640625 14.19606812 -1.54214844 14.3236853 -2.62988281 14.45516968 C-6.5106685 14.36265408 -8.99347909 13.1306359 -11.74316406 10.38095093 C-12.05566406 7.00595093 -12.05566406 7.00595093 -11.74316406 3.38095093 C-8.43528446 -0.28703727 -4.6203167 -0.042201 0 0 Z M28.25683594 13.38095093 C28.20277472 15.31814471 28.16401569 17.25577014 28.13183594 19.19345093 C28.10863281 20.27239624 28.08542969 21.35134155 28.06152344 22.46298218 C28.02659877 25.57497961 28.02659877 25.57497961 30.25683594 28.38095093 C33.25683594 28.79761759 33.25683594 28.79761759 36.25683594 28.38095093 C38.58549822 26.4924891 38.58549822 26.4924891 38.45214844 23.34188843 C38.42894531 22.15852905 38.40574219 20.97516968 38.38183594 19.75595093 C38.36378906 18.5674353 38.34574219 17.37891968 38.32714844 16.15438843 C38.30394531 15.23915405 38.28074219 14.32391968 38.25683594 13.38095093 C34.95683594 13.38095093 31.65683594 13.38095093 28.25683594 13.38095093 Z M55.25683594 14.38095093 C55.00678208 17.33912199 55.00678208 17.33912199 55.25683594 20.38095093 C57.62730125 22.75141624 58.09087766 22.63278231 61.30761719 22.63973999 C62.55901489 22.64919647 62.55901489 22.64919647 63.83569336 22.65884399 C64.73779541 22.65479553 65.63989746 22.65074707 66.56933594 22.64657593 C67.49399658 22.64848938 68.41865723 22.65040283 69.37133789 22.65237427 C71.32829053 22.65373659 73.28525218 22.65003689 75.2421875 22.64169312 C78.24467183 22.63099427 81.2465578 22.64158684 84.24902344 22.65438843 C86.14746226 22.65306684 88.04590072 22.65050447 89.94433594 22.64657593 C90.84643799 22.65062439 91.74854004 22.65467285 92.67797852 22.65884399 C93.51224365 22.65253967 94.34650879 22.64623535 95.20605469 22.63973999 C95.94170654 22.6381488 96.6773584 22.63655762 97.43530273 22.63491821 C99.50697808 22.53260124 99.50697808 22.53260124 101.25683594 20.38095093 C101.42360876 16.79751117 101.42360876 16.79751117 101.25683594 13.38095093 C94.86646363 13.35568031 88.47610411 13.33811776 82.08569336 13.32601929 C79.90990721 13.32097785 77.73412447 13.31414486 75.55834961 13.30551147 C72.43830527 13.29343755 69.31830555 13.28772088 66.19824219 13.28329468 C65.2190834 13.27813339 64.23992462 13.27297211 63.23109436 13.26765442 C62.33023605 13.26757889 61.42937775 13.26750336 60.5012207 13.26742554 C59.70402115 13.26520493 58.90682159 13.26298431 58.08546448 13.26069641 C56.23761313 13.18044637 56.23761313 13.18044637 55.25683594 14.38095093 Z M124.25683594 13.38095093 C124.37066247 15.33996547 124.49824719 17.29818473 124.63183594 19.25595093 C124.70144531 20.3464978 124.77105469 21.43704468 124.84277344 22.56063843 C124.98937085 25.51141567 124.98937085 25.51141567 127.25683594 27.38095093 C131.08248259 27.19338031 131.08248259 27.19338031 134.25683594 25.38095093 C134.51696775 23.55424752 134.71606665 21.71862185 134.88183594 19.88095093 C134.97722656 18.88063843 135.07261719 17.88032593 135.17089844 16.84970093 C135.19925781 16.03501343 135.22761719 15.22032593 135.25683594 14.38095093 C134.22276921 13.12146044 134.22276921 13.12146044 131.97167969 13.28329468 C131.05515625 13.29489624 130.13863281 13.3064978 129.19433594 13.31845093 C128.27523437 13.32747437 127.35613281 13.3364978 126.40917969 13.34579468 C125.69890625 13.35739624 124.98863281 13.3689978 124.25683594 13.38095093 Z M148.25683594 27.38095093 C147.97942349 29.6113039 147.97942349 29.6113039 148.06152344 32.17001343 C148.06796875 33.11102905 148.07441406 34.05204468 148.08105469 35.02157593 C148.0978125 36.00641968 148.11457031 36.99126343 148.13183594 38.00595093 C148.14085937 38.99852905 148.14988281 39.99110718 148.15917969 41.01376343 C148.18279477 43.46973227 148.21572794 45.92522261 148.25683594 48.38095093 C147.57057129 48.37047729 146.88430664 48.36000366 146.17724609 48.34921265 C143.07881305 48.30773218 139.98043833 48.28165024 136.88183594 48.25595093 C135.80160156 48.23919312 134.72136719 48.2224353 133.60839844 48.20516968 C132.06152344 48.19550171 132.06152344 48.19550171 130.48339844 48.18563843 C129.53029785 48.17516479 128.57719727 48.16469116 127.59521484 48.15390015 C125.06451464 48.14963225 125.06451464 48.14963225 123.25683594 50.38095093 C122.9235026 53.38095093 122.9235026 53.38095093 123.25683594 56.38095093 C125.06451464 58.6122696 125.06451464 58.6122696 127.59521484 58.60800171 C129.02486572 58.59229126 129.02486572 58.59229126 130.48339844 58.57626343 C131.51464844 58.56981812 132.54589844 58.5633728 133.60839844 58.55673218 C134.68863281 58.53997437 135.76886719 58.52321655 136.88183594 58.50595093 C138.51378906 58.49241577 138.51378906 58.49241577 140.17871094 58.47860718 C142.87163745 58.45498502 145.56412849 58.42204649 148.25683594 58.38095093 C148.23363281 59.0074353 148.21042969 59.63391968 148.18652344 60.27938843 C148.16847656 61.09665405 148.15042969 61.91391968 148.13183594 62.75595093 C148.10863281 63.5680603 148.08542969 64.38016968 148.06152344 65.21688843 C148.04313543 67.59437336 148.04313543 67.59437336 150.25683594 69.38095093 C153.25683594 69.79761759 153.25683594 69.79761759 156.25683594 69.38095093 C158.82496367 65.52875933 158.54488079 62.3461821 158.52246094 57.88095093 C158.52437439 57.04886108 158.52628784 56.21677124 158.52825928 55.35946655 C158.52961968 53.60099993 158.52593332 51.84252322 158.51757812 50.08407593 C158.50687642 47.3911383 158.51747815 44.69886778 158.53027344 42.00595093 C158.52895182 40.29761612 158.52638937 38.58928173 158.52246094 36.88095093 C158.5265094 36.07464233 158.53055786 35.26833374 158.534729 34.43759155 C158.50222513 30.56620401 158.45372643 28.67628666 156.25683594 25.38095093 C151.75118485 24.82840828 151.75118485 24.82840828 148.25683594 27.38095093 Z M57.62158203 31.60165405 C55.85225331 33.90842824 55.86996236 35.27452445 55.85839844 38.16220093 C55.85453125 39.08645874 55.85066406 40.01071655 55.84667969 40.96298218 C55.85828125 41.92591187 55.86988281 42.88884155 55.88183594 43.88095093 C55.87023437 44.84388062 55.85863281 45.8068103 55.84667969 46.79891968 C55.85054688 47.72317749 55.85441406 48.6474353 55.85839844 49.59970093 C55.86178223 50.4446814 55.86516602 51.28966187 55.86865234 52.1602478 C56.34093144 54.86204064 57.07963214 55.75568682 59.25683594 57.38095093 C61.79914441 57.7977439 61.79914441 57.7977439 64.25683594 57.38095093 C66.82672274 54.81106412 66.51390369 53.7918504 66.52246094 50.22470093 C66.52503906 49.20247437 66.52761719 48.1802478 66.53027344 47.12704468 C66.52253906 46.05583374 66.51480469 44.9846228 66.50683594 43.88095093 C66.5184375 42.27413452 66.5184375 42.27413452 66.53027344 40.63485718 C66.52769531 39.61263062 66.52511719 38.59040405 66.52246094 37.53720093 C66.52020508 36.59682983 66.51794922 35.65645874 66.515625 34.68759155 C66.47782309 32.18603126 66.47782309 32.18603126 64.25683594 30.38095093 C61.46347027 30.02282712 59.91793669 29.88744484 57.62158203 31.60165405 Z M100.25683594 32.38095093 C99.97821567 35.1816059 99.97821567 35.1816059 100.06152344 38.44735718 C100.06796875 39.65456421 100.07441406 40.86177124 100.08105469 42.1055603 C100.0978125 43.37206421 100.11457031 44.63856812 100.13183594 45.94345093 C100.14085938 47.21382202 100.14988281 48.48419312 100.15917969 49.7930603 C100.18309518 52.98919532 100.21721773 56.18498037 100.25683594 59.38095093 C100.25683594 59.71095093 100.25683594 60.04095093 100.25683594 60.38095093 C98.54173828 60.36354858 98.54173828 60.36354858 96.79199219 60.34579468 C95.3011084 60.33641805 93.81022285 60.32731771 92.31933594 60.31845093 C91.56458984 60.31007202 90.80984375 60.30169312 90.03222656 60.2930603 C88.1068928 60.28442652 86.18148013 60.3287076 84.25683594 60.38095093 C82.92035577 61.49196277 82.92035577 61.49196277 83.13183594 64.31845093 C83.04357929 67.2964082 83.04357929 67.2964082 84.25683594 69.38095093 C88.21510829 69.43880739 92.17327263 69.4744981 96.13183594 69.50595093 C97.82373047 69.53108765 97.82373047 69.53108765 99.54980469 69.55673218 C101.16435547 69.56640015 101.16435547 69.56640015 102.81152344 69.57626343 C104.30401611 69.59197388 104.30401611 69.59197388 105.82666016 69.60800171 C108.4385501 69.62474494 108.4385501 69.62474494 110.25683594 67.38095093 C110.45648967 64.75154897 110.53667703 62.2297493 110.52246094 59.59970093 C110.52437439 58.8304126 110.52628784 58.06112427 110.52825928 57.26852417 C110.52962102 55.64112013 110.52592533 54.01370523 110.51757812 52.38632202 C110.50687814 49.89079462 110.51747345 47.39598711 110.53027344 44.90048218 C110.52895184 43.3210535 110.52638944 41.74162527 110.52246094 40.16220093 C110.5265094 39.41321533 110.53055786 38.66422974 110.534729 37.89254761 C110.63870796 33.67783945 110.63870796 33.67783945 108.25683594 30.38095093 C103.75203316 29.87045513 103.75203316 29.87045513 100.25683594 32.38095093 Z M116.25683594 33.38095093 C116.21590656 35.71392526 116.21441871 38.04800317 116.25683594 40.38095093 C120.9417747 42.86982465 124.20125734 42.23782866 129.25683594 41.38095093 C130.46981243 39.10028022 130.46981243 39.10028022 131.25683594 36.38095093 C130.36842181 34.22849789 130.36842181 34.22849789 129.25683594 32.38095093 C127.27774196 32.3540854 125.29854623 32.33461717 123.31933594 32.31845093 C121.66611328 32.30104858 121.66611328 32.30104858 119.97949219 32.28329468 C117.3423596 32.06832521 117.3423596 32.06832521 116.25683594 33.38095093 Z M16.37133789 36.51351929 C14.72832287 39.26651423 14.88520354 41.50466581 14.89355469 44.69345093 C14.89419922 45.93352905 14.89484375 47.17360718 14.89550781 48.45126343 C14.91162109 49.7480603 14.92773438 51.04485718 14.94433594 52.38095093 C14.94111328 53.6777478 14.93789063 54.97454468 14.93457031 56.31063843 C14.67958135 63.23226549 14.67958135 63.23226549 17.25683594 69.38095093 C20.42592763 69.84934988 20.42592763 69.84934988 24.16308594 69.77938843 C24.84359009 69.78225861 25.52409424 69.78512878 26.22521973 69.78808594 C27.6643151 69.79012788 29.10343815 69.78458879 30.54248047 69.77206421 C32.74867653 69.7560103 34.95304078 69.77190624 37.15917969 69.79110718 C38.55631916 69.78912477 39.95345749 69.78528113 41.35058594 69.77938843 C43.26387695 69.77431274 43.26387695 69.77431274 45.21582031 69.76913452 C46.21935547 69.64103394 47.22289063 69.51293335 48.25683594 69.38095093 C51.56230017 64.42275458 50.58441687 58.76770885 50.56933594 52.94345093 C50.58544922 51.70272827 50.6015625 50.46200562 50.61816406 49.1836853 C50.61880859 47.99194702 50.61945312 46.80020874 50.62011719 45.57235718 C50.62309814 44.48124634 50.6260791 43.3901355 50.62915039 42.26596069 C50.20108074 38.94891216 49.78220856 37.58292675 47.25683594 35.38095093 C44.21369754 34.77869216 44.21369754 34.77869216 40.72558594 34.88485718 C39.44039062 34.88421265 38.15519531 34.88356812 36.83105469 34.88290405 C35.82824463 34.89849365 35.82824463 34.89849365 34.80517578 34.91439819 C32.7634962 34.94335646 30.72441378 34.93500767 28.68261719 34.92196655 C22.27773839 34.61483762 22.27773839 34.61483762 16.37133789 36.51351929 Z M76.25683594 46.38095093 C75.9235026 49.38095093 75.9235026 49.38095093 76.25683594 52.38095093 C78.75746741 54.8815824 79.73495292 54.70515235 83.19433594 54.75595093 C84.50724609 54.79848999 84.50724609 54.79848999 85.84667969 54.84188843 C88.39749994 54.58720594 88.39749994 54.58720594 90.12011719 52.52548218 C91.58336148 50.3597108 91.58336148 50.3597108 90.50683594 47.69345093 C89.45455284 45.48339945 89.45455284 45.48339945 88.25683594 44.38095093 C86.61453229 44.25640233 84.96631318 44.20526569 83.31933594 44.19345093 C82.4234375 44.17927124 81.52753906 44.16509155 80.60449219 44.15048218 C78.0656906 44.14900324 78.0656906 44.14900324 76.25683594 46.38095093 Z " fill="#ECECEC" transform="translate(11.7431640625,100.61904907226563)"/>
<path d="M0 0 C1.9537001 -0.01691895 1.9537001 -0.01691895 3.9468689 -0.03417969 C5.3884147 -0.02640258 6.82995831 -0.01820992 8.27149963 -0.00964355 C9.79105805 -0.01506427 11.31061122 -0.02218665 12.83015442 -0.03088379 C16.95628567 -0.04912786 21.0820171 -0.04204491 25.20815539 -0.02936745 C29.52599846 -0.01924347 33.8438072 -0.02863162 38.16165161 -0.03491211 C45.41398771 -0.04219106 52.66616092 -0.03259517 59.91847229 -0.0135498 C68.30168263 0.00821128 76.68450374 0.00117424 85.06770462 -0.02085543 C92.26528994 -0.03901219 99.46275814 -0.04156617 106.66035897 -0.03110075 C110.95912782 -0.02486626 115.25771379 -0.02402872 119.55647087 -0.0372467 C123.59904554 -0.04880839 127.64111896 -0.04077406 131.68363953 -0.01766968 C133.16669953 -0.01238387 134.64980177 -0.01389424 136.13284492 -0.02272034 C138.1583721 -0.03366276 140.18399154 -0.01750267 142.20947266 0 C143.34269172 0.0015081 144.47591078 0.0030162 145.64346981 0.00457001 C149.36184596 0.62336284 151.03986512 1.84492395 153.66822815 4.50793457 C154.26950073 7.60845947 154.26950073 7.60845947 154.2358551 11.29602051 C154.23645778 11.98044346 154.23706045 12.66486641 154.23768139 13.37002945 C154.23395895 15.57829252 154.19593915 17.78442588 154.1565094 19.99230957 C154.14915475 21.35834742 154.14405584 22.72439934 154.14125061 24.0904541 C154.1150733 29.1464963 154.04526655 34.20223653 153.98072815 39.25793457 C153.82604065 56.21168457 153.82604065 56.21168457 153.66822815 73.50793457 C130.89822815 73.50793457 108.12822815 73.50793457 84.66822815 73.50793457 C84.17322815 66.08293457 84.17322815 66.08293457 83.66822815 58.50793457 C79.68651076 57.78703007 79.68651076 57.78703007 75.66822815 57.50793457 C75.33822815 62.78793457 75.00822815 68.06793457 74.66822815 73.50793457 C46.61822815 73.50793457 18.56822815 73.50793457 -10.33177185 73.50793457 C-10.41427185 62.20543457 -10.49677185 50.90293457 -10.58177185 39.25793457 C-10.61818787 35.69206543 -10.65460388 32.12619629 -10.69212341 28.45227051 C-10.71018982 24.0904541 -10.71018982 24.0904541 -10.71354675 22.04705811 C-10.71968031 20.62301635 -10.73373085 19.1989951 -10.7540741 17.77508545 C-10.78338596 15.61503136 -10.78739518 13.45624389 -10.78587341 11.29602051 C-10.79475586 10.07912537 -10.80363831 8.86223022 -10.81278992 7.60845947 C-9.81678939 1.1884835 -5.98772549 0.00797119 0 0 Z M0.66822815 12.50793457 C-2.71101374 17.57679741 -1.65906108 23.55674871 -1.64427185 29.50793457 C-1.66038513 30.80473145 -1.67649841 32.10152832 -1.69309998 33.43762207 C-1.69374451 34.6777002 -1.69438904 35.91777832 -1.6950531 37.19543457 C-1.69803406 38.33367676 -1.70101501 39.47191895 -1.7040863 40.64465332 C-1.53165656 43.45412978 -1.53165656 43.45412978 -0.2172699 45.37536621 C3.9383151 47.87151522 9.41210125 46.98404851 14.11988831 46.95397949 C16.16176386 46.94546154 18.2008473 46.97424291 20.2424469 47.00598145 C22.17023987 47.00501465 22.17023987 47.00501465 24.13697815 47.00402832 C25.31711487 47.00588135 26.49725159 47.00773437 27.71315002 47.00964355 C30.70603632 46.76795463 30.70603632 46.76795463 32.5537262 44.84802246 C33.94593637 41.92483856 34.04075828 39.80604427 34.0315094 36.57043457 C34.03086487 35.4283252 34.03022034 34.28621582 34.02955627 33.10949707 C34.00538635 31.32672363 34.00538635 31.32672363 33.98072815 29.50793457 C33.98395081 28.31941895 33.98717346 27.13090332 33.99049377 25.90637207 C34.12595069 18.90319869 34.12595069 18.90319869 31.66822815 12.50793457 C27.29000906 12.43386267 22.91212033 12.37937082 18.53346252 12.34313965 C17.04348906 12.32803857 15.55356014 12.30755599 14.06373596 12.28161621 C11.92397584 12.24528873 9.78480248 12.22822236 7.64479065 12.21496582 C6.35653381 12.19925537 5.06827698 12.18354492 3.74098206 12.1673584 C2.72697327 12.27974854 1.71296448 12.39213867 0.66822815 12.50793457 Z M39.66822815 14.50793457 C39.35770974 16.80183888 39.35770974 16.80183888 39.40260315 19.44543457 C39.40002502 20.42254395 39.3974469 21.39965332 39.39479065 22.40637207 C39.40252502 23.4298877 39.4102594 24.45340332 39.41822815 25.50793457 C39.41049377 26.5314502 39.4027594 27.55496582 39.39479065 28.60949707 C39.39736877 29.58660645 39.3999469 30.56371582 39.40260315 31.57043457 C39.40485901 32.46891113 39.40711487 33.3673877 39.40943909 34.29309082 C39.46013873 36.71335622 39.46013873 36.71335622 41.66822815 38.50793457 C44.66822815 38.92460124 44.66822815 38.92460124 47.66822815 38.50793457 C50.13047831 35.41548454 50.13047831 35.41548454 49.66822815 30.50793457 C54.61822815 30.50793457 59.56822815 30.50793457 64.66822815 30.50793457 C64.5705719 32.7865804 64.47291565 35.06522624 64.3752594 37.34387207 C64.47193909 38.0580127 64.56861877 38.77215332 64.66822815 39.50793457 C67.42520999 41.78932402 67.42520999 41.78932402 70.23072815 41.32043457 C73.00077932 40.67421015 73.00077932 40.67421015 74.66822815 37.50793457 C74.97584576 35.13811645 74.97584576 35.13811645 74.93385315 32.50793457 C74.93643127 31.53855957 74.9390094 30.56918457 74.94166565 29.57043457 C74.93006409 28.05449707 74.93006409 28.05449707 74.91822815 26.50793457 C74.92596252 25.49730957 74.9336969 24.48668457 74.94166565 23.44543457 C74.93779846 21.99137207 74.93779846 21.99137207 74.93385315 20.50793457 C74.93159729 19.62105957 74.92934143 18.73418457 74.92701721 17.82043457 C74.81652177 15.23342512 74.81652177 15.23342512 72.66822815 12.50793457 C69.66822815 12.0912679 69.66822815 12.0912679 66.66822815 12.50793457 C66.00822815 13.16793457 65.34822815 13.82793457 64.66822815 14.50793457 C64.66822815 16.48793457 64.66822815 18.46793457 64.66822815 20.50793457 C59.38822815 20.50793457 54.10822815 20.50793457 48.66822815 20.50793457 C48.99822815 20.17793457 49.32822815 19.84793457 49.66822815 19.50793457 C49.91830545 17.04983459 49.91830545 17.04983459 49.66822815 14.50793457 C47.78322544 12.1923037 47.78322544 12.1923037 44.66822815 12.25793457 C41.55323086 12.1923037 41.55323086 12.1923037 39.66822815 14.50793457 Z M85.66822815 14.50793457 C85.4685218 17.12578332 85.38838992 19.63552364 85.40260315 22.25402832 C85.4006897 23.02094498 85.39877625 23.78786163 85.39680481 24.57801819 C85.39544291 26.20122607 85.3991397 27.82444484 85.40748596 29.44763184 C85.41817112 31.93217487 85.40759872 34.41599244 85.39479065 36.9005127 C85.39611253 38.47668617 85.39867552 40.05285919 85.40260315 41.62902832 C85.39855469 42.37285263 85.39450623 43.11667694 85.39033508 43.88304138 C85.42440683 47.63400882 85.53431012 49.30705753 87.66822815 52.50793457 C90.66822815 52.92460124 90.66822815 52.92460124 93.66822815 52.50793457 C96.21388227 49.96228045 95.91546825 48.31617743 95.94612122 44.84387207 C95.94207275 44.0730127 95.93802429 43.30215332 95.93385315 42.50793457 C95.93672333 41.32070801 95.93672333 41.32070801 95.93965149 40.10949707 C95.94101333 38.43501467 95.93731697 36.76052172 95.92897034 35.08605957 C95.91827055 32.51811076 95.9288654 29.95086154 95.94166565 27.38293457 C95.94034405 25.75793302 95.93778166 24.13293191 95.93385315 22.50793457 C95.93790161 21.7370752 95.94195007 20.96621582 95.94612122 20.17199707 C96.06467526 15.8766402 96.06467526 15.8766402 93.66822815 12.50793457 C89.16342538 11.99743877 89.16342538 11.99743877 85.66822815 14.50793457 Z M111.66822815 12.50793457 C108.36276392 17.46613092 109.34064721 23.12117665 109.35572815 28.94543457 C109.33961487 30.18615723 109.32350159 31.42687988 109.30690002 32.7052002 C109.30625549 33.89693848 109.30561096 35.08867676 109.3049469 36.31652832 C109.30196594 37.40763916 109.29898499 38.49875 109.2959137 39.6229248 C109.72398334 42.93997334 110.14285553 44.30595875 112.66822815 46.50793457 C115.71136654 47.11019334 115.71136654 47.11019334 119.19947815 47.00402832 C120.48467346 47.00467285 121.76986877 47.00531738 123.0940094 47.00598145 C123.76254944 46.99558838 124.43108948 46.98519531 125.11988831 46.9744873 C127.16156789 46.94552904 129.20065031 46.95387782 131.2424469 46.96691895 C137.6473257 47.27404788 137.6473257 47.27404788 143.5537262 45.37536621 C145.19674122 42.62237127 145.03986055 40.38421969 145.0315094 37.19543457 C145.03086487 35.95535645 145.03022034 34.71527832 145.02955627 33.43762207 C145.01344299 32.1408252 144.99732971 30.84402832 144.98072815 29.50793457 C144.98395081 28.2111377 144.98717346 26.91434082 144.99049377 25.57824707 C145.24548274 18.65662001 145.24548274 18.65662001 142.66822815 12.50793457 C139.49913646 12.03953561 139.49913646 12.03953561 135.76197815 12.10949707 C135.081474 12.10662689 134.40096985 12.10375671 133.69984436 12.10079956 C132.26074899 12.09875762 130.82162594 12.10429671 129.38258362 12.11682129 C127.17638755 12.1328752 124.97202331 12.11697926 122.7658844 12.09777832 C121.36874493 12.09976073 119.9716066 12.10360437 118.57447815 12.10949707 C117.29895081 12.11288086 116.02342346 12.11626465 114.70924377 12.11975098 C113.70570862 12.24785156 112.70217346 12.37595215 111.66822815 12.50793457 Z M58.9377594 51.59777832 C57.06344485 54.41790083 57.3070845 56.7215061 57.35572815 60.07043457 C57.35959534 61.22672363 57.36346252 62.3830127 57.3674469 63.57434082 C57.36876937 66.62934086 57.36876937 66.62934086 59.66822815 68.50793457 C62.66822815 68.8412679 62.66822815 68.8412679 65.66822815 68.50793457 C68.4463221 65.72984062 67.96778518 63.94038254 67.98072815 60.07043457 C67.99748596 58.91672363 68.01424377 57.7630127 68.0315094 56.57434082 C67.90812063 53.55694158 67.90812063 53.55694158 66.3986969 51.59777832 C63.77270665 49.94393796 61.56374965 49.94393796 58.9377594 51.59777832 Z M0.66822815 54.50793457 C-1.62814965 57.26689092 -1.62814965 57.26689092 -1.08177185 60.07043457 C-0.49369133 62.65794024 -0.49369133 62.65794024 1.66822815 64.50793457 C3.74766734 64.81339413 3.74766734 64.81339413 6.16212463 64.76672363 C7.09326584 64.77302795 8.02440704 64.77933228 8.98376465 64.78582764 C9.99209854 64.78177917 11.00043243 64.77773071 12.0393219 64.77355957 C13.07259109 64.77547302 14.10586029 64.77738647 15.17044067 64.77935791 C17.3585891 64.78072066 19.54674559 64.777018 21.73487854 64.76867676 C25.08849742 64.75798948 28.44157926 64.7685636 31.79518127 64.78137207 C33.91822934 64.78005028 36.04127706 64.77748748 38.1643219 64.77355957 C39.67378639 64.77963226 39.67378639 64.77963226 41.21374512 64.78582764 C42.61518517 64.77637115 42.61518517 64.77637115 44.04493713 64.76672363 C44.86719284 64.76513245 45.68944855 64.76354126 46.53662109 64.76190186 C48.96724174 64.63530192 48.96724174 64.63530192 51.66822815 62.50793457 C52.08489482 59.50793457 52.08489482 59.50793457 51.66822815 56.50793457 C49.17804385 54.01775027 48.41036292 54.25168166 44.97486877 54.23327637 C44.00045837 54.22374435 43.02604797 54.21421234 42.02210999 54.20439148 C40.96689148 54.20530289 39.91167297 54.20621429 38.82447815 54.20715332 C37.74444519 54.20286819 36.66441223 54.19858307 35.551651 54.19416809 C33.26515912 54.18841779 30.97864894 54.18792965 28.69215393 54.19226074 C25.18256127 54.19542166 21.67381029 54.17196616 18.1643219 54.14660645 C15.94687505 54.14433373 13.72942593 54.14362983 11.51197815 54.14465332 C10.45675964 54.13544357 9.40154114 54.12623383 8.31434631 54.116745 C7.33993591 54.12297379 6.36552551 54.12920258 5.36158752 54.13562012 C4.07157837 54.13467598 4.07157837 54.13467598 2.75550842 54.13371277 C1.72230469 54.31895256 1.72230469 54.31895256 0.66822815 54.50793457 Z M104.66822815 56.50793457 C104.25156148 59.50793457 104.25156148 59.50793457 104.66822815 62.50793457 C107.14778596 64.98749238 108.61540754 64.76336372 112.00170898 64.81147766 C113.08767113 64.81011055 113.08767113 64.81011055 114.1955719 64.80871582 C115.31265282 64.81514351 115.31265282 64.81514351 116.45230103 64.82170105 C118.02841678 64.82744739 119.60455905 64.82794237 121.18067932 64.8236084 C123.59300507 64.82045122 126.00410127 64.84389214 128.41627502 64.8692627 C129.94687243 64.87153594 131.47747314 64.87223907 133.0080719 64.87121582 C133.73002243 64.88042557 134.45197296 64.88963531 135.19580078 64.89912415 C138.15009517 64.8718229 140.18037215 64.84188824 142.65870667 63.14538574 C143.91635639 61.46316934 143.91635639 61.46316934 143.48072815 58.94543457 C142.82195782 56.36352185 142.82195782 56.36352185 140.66822815 54.50793457 C138.19409636 54.30839263 135.83435297 54.22803982 133.3596344 54.24230957 C132.63710983 54.24039612 131.91458527 54.23848267 131.17016602 54.23651123 C129.64111483 54.23514953 128.11205208 54.23884493 126.58302307 54.24719238 C124.24332131 54.25787706 121.90439008 54.24730507 119.56471252 54.23449707 C118.07968479 54.23581897 116.59465753 54.238382 115.1096344 54.24230957 C114.40955765 54.23826111 113.7094809 54.23421265 112.9881897 54.2300415 C109.32449519 54.26535803 107.80316249 54.41797834 104.66822815 56.50793457 Z " fill="#E7E7E7" transform="translate(28.331771850585938,17.4920654296875)"/>
<path d="M0 0 C2.94892571 1.24165293 3.75959422 2.24691601 5.375 5 C5.92421945 9.14951057 5.84800978 13.28905372 5.82104492 17.47216797 C5.81252446 19.49419633 5.8413264 21.51340607 5.87304688 23.53515625 C5.87240234 24.81261719 5.87175781 26.09007812 5.87109375 27.40625 C5.87387329 29.15905273 5.87387329 29.15905273 5.87670898 30.94726562 C5.375 34 5.375 34 3.75390625 36.37670898 C-0.67435728 39.39841713 -5.84533449 38.62650205 -11.04223633 38.57641602 C-13.05393299 38.56255901 -15.06096257 38.59661216 -17.07226562 38.63476562 C-18.34650391 38.63283203 -19.62074219 38.63089844 -20.93359375 38.62890625 C-22.09689209 38.62963135 -23.26019043 38.63035645 -24.45874023 38.63110352 C-28.5461762 37.81638982 -30.06808836 36.22380169 -32.625 33 C-32.625 30.07147712 -32.14674208 28.67657251 -30.36791992 26.36987305 C-28.05006618 24.54812248 -26.661753 24.65387722 -23.73828125 24.70703125 C-22.3315918 24.7215332 -22.3315918 24.7215332 -20.89648438 24.73632812 C-19.43178711 24.7740332 -19.43178711 24.7740332 -17.9375 24.8125 C-16.94943359 24.82603516 -15.96136719 24.83957031 -14.94335938 24.85351562 C-12.50335769 24.88887797 -10.06445281 24.93822967 -7.625 25 C-7.65118408 24.38479492 -7.67736816 23.76958984 -7.7043457 23.13574219 C-7.80845921 20.34075592 -7.87336749 17.54617742 -7.9375 14.75 C-7.97939453 13.78191406 -8.02128906 12.81382812 -8.06445312 11.81640625 C-8.18820395 4.63885822 -8.18820395 4.63885822 -5.26953125 1.328125 C-2.625 0 -2.625 0 0 0 Z " fill="#E4E4E4" transform="translate(194.625,162)"/>
<path d="M0 0 C2.54512193 1.07163029 3.67949972 1.84277731 5.375 4 C5.71557617 6.26831055 5.71557617 6.26831055 5.66796875 8.88671875 C5.65830078 9.82451172 5.64863281 10.76230469 5.63867188 11.72851562 C5.61353516 12.70498047 5.58839844 13.68144531 5.5625 14.6875 C5.54896484 15.67556641 5.53542969 16.66363281 5.52148438 17.68164062 C5.48612203 20.12164231 5.43677033 22.56054719 5.375 25 C5.99020508 24.97381592 6.60541016 24.94763184 7.23925781 24.9206543 C10.03424408 24.81654079 12.82882258 24.75163251 15.625 24.6875 C16.59308594 24.64560547 17.56117187 24.60371094 18.55859375 24.56054688 C25.73614178 24.43679605 25.73614178 24.43679605 29.046875 27.35546875 C30.375 30 30.375 30 30.375 32.625 C29.13334707 35.57392571 28.12808399 36.38459422 25.375 38 C21.22548943 38.54921945 17.08594628 38.47300978 12.90283203 38.44604492 C10.88080367 38.43752446 8.86159393 38.4663264 6.83984375 38.49804688 C5.56238281 38.49740234 4.28492188 38.49675781 2.96875 38.49609375 C1.21594727 38.49887329 1.21594727 38.49887329 -0.57226562 38.50170898 C-3.625 38 -3.625 38 -6.00170898 36.37890625 C-9.02341713 31.95064272 -8.25150205 26.77966551 -8.20141602 21.58276367 C-8.18755901 19.57106701 -8.22161216 17.56403743 -8.25976562 15.55273438 C-8.25783203 14.27849609 -8.25589844 13.00425781 -8.25390625 11.69140625 C-8.25463135 10.52810791 -8.25535645 9.36480957 -8.25610352 8.16625977 C-7.35146636 3.62767592 -4.91525412 0 0 0 Z " fill="#E4E4E4" transform="translate(7.625,162)"/>
<path d="M0 0 C2.02202836 0.00852047 4.0412381 -0.02028147 6.06298828 -0.05200195 C7.34044922 -0.05135742 8.61791016 -0.05071289 9.93408203 -0.05004883 C11.68688477 -0.05282837 11.68688477 -0.05282837 13.47509766 -0.05566406 C16.52783203 0.44604492 16.52783203 0.44604492 18.90454102 2.06713867 C21.92624917 6.4954022 21.15433408 11.66637941 21.10424805 16.86328125 C21.09039104 18.87497791 21.12444419 20.88200749 21.16259766 22.89331055 C21.16066406 24.16754883 21.15873047 25.44178711 21.15673828 26.75463867 C21.15746338 27.91793701 21.15818848 29.08123535 21.15893555 30.27978516 C20.34422185 34.36722113 18.75163372 35.88913328 15.52783203 38.44604492 C12.59930916 38.44604492 11.20440454 37.967787 8.89770508 36.18896484 C7.07595451 33.87111111 7.18170925 32.48279793 7.23486328 29.55932617 C7.24453125 28.6215332 7.25419922 27.68374023 7.26416016 26.7175293 C7.28929687 25.74106445 7.31443359 24.76459961 7.34033203 23.75854492 C7.36063477 22.27644531 7.36063477 22.27644531 7.38134766 20.7644043 C7.41671 18.32440261 7.4660617 15.88549774 7.52783203 13.44604492 C6.91262695 13.472229 6.29742187 13.49841309 5.66357422 13.52539062 C2.86858795 13.62950413 0.07400945 13.69441241 -2.72216797 13.75854492 C-3.69025391 13.80043945 -4.65833984 13.84233398 -5.65576172 13.88549805 C-12.83330975 14.00924888 -12.83330975 14.00924888 -16.14404297 11.09057617 C-17.47216797 8.44604492 -17.47216797 8.44604492 -17.47216797 5.82104492 C-14.38584171 -1.50897994 -6.7592824 -0.04357115 0 0 Z " fill="#E4E4E4" transform="translate(179.47216796875,-0.446044921875)"/>
<path d="M0 0 C2.01169666 0.013857 4.01872624 -0.02019614 6.0300293 -0.05834961 C7.94138672 -0.05544922 7.94138672 -0.05544922 9.89135742 -0.05249023 C11.05465576 -0.05321533 12.2179541 -0.05394043 13.41650391 -0.0546875 C17.50393988 0.7600262 19.02585203 2.35261432 21.58276367 5.57641602 C21.58276367 8.50493889 21.10450575 9.8998435 19.32568359 12.20654297 C17.00782986 14.02829354 15.61951668 13.9225388 12.69604492 13.86938477 C11.75825195 13.8597168 10.82045898 13.85004883 9.85424805 13.84008789 C8.8777832 13.81495117 7.90131836 13.78981445 6.89526367 13.76391602 C5.41316406 13.74361328 5.41316406 13.74361328 3.90112305 13.72290039 C1.46112136 13.68753805 -0.97778351 13.63818634 -3.41723633 13.57641602 C-3.39105225 14.19162109 -3.36486816 14.80682617 -3.33789062 15.44067383 C-3.23377712 18.23566009 -3.16886884 21.0302386 -3.10473633 23.82641602 C-3.04189453 25.27854492 -3.04189453 25.27854492 -2.9777832 26.76000977 C-2.85403237 33.9375578 -2.85403237 33.9375578 -5.77270508 37.24829102 C-8.41723633 38.57641602 -8.41723633 38.57641602 -11.04223633 38.57641602 C-13.99116204 37.33476308 -14.80183054 36.3295 -16.41723633 33.57641602 C-16.96645578 29.42690545 -16.89024611 25.28736229 -16.86328125 21.10424805 C-16.85476078 19.08221968 -16.88356272 17.06300994 -16.9152832 15.04125977 C-16.91463867 13.76379883 -16.91399414 12.48633789 -16.91333008 11.17016602 C-16.91518311 10.00163086 -16.91703613 8.8330957 -16.91894531 7.62915039 C-16.41723633 4.57641602 -16.41723633 4.57641602 -14.79614258 2.19970703 C-10.36787905 -0.82200112 -5.19690184 -0.05008604 0 0 Z " fill="#E4E4E4" transform="translate(16.417236328125,-0.576416015625)"/>
<path d="M0 0 C0 5.28 0 10.56 0 16 C-2.454375 15.855625 -4.90875 15.71125 -7.4375 15.5625 C-8.21150146 15.51939697 -8.98550293 15.47629395 -9.78295898 15.43188477 C-14.88888889 15.11111111 -14.88888889 15.11111111 -16 14 C-16.07271741 11.64686445 -16.08370868 9.29166332 -16.0625 6.9375 C-16.05347656 5.64714844 -16.04445312 4.35679687 -16.03515625 3.02734375 C-16.02355469 2.02832031 -16.01195312 1.02929688 -16 0 C-13.7089095 -0.19441368 -11.41709663 -0.38033135 -9.125 -0.5625 C-7.21074219 -0.71912109 -7.21074219 -0.71912109 -5.2578125 -0.87890625 C-2 -1 -2 -1 0 0 Z " fill="#F6F6F6" transform="translate(53,146)"/>
<path d="M0 0 C2.454375 0.144375 4.90875 0.28875 7.4375 0.4375 C8.21150146 0.48060303 8.98550293 0.52370605 9.78295898 0.56811523 C14.88888889 0.88888889 14.88888889 0.88888889 16 2 C16.14426614 6.66845228 16.04208415 11.32865953 16 16 C10.72 16.33 5.44 16.66 0 17 C0 11.39 0 5.78 0 0 Z " fill="#F6F6F6" transform="translate(147,38)"/>
<path d="M0 0 C2.454375 0.144375 4.90875 0.28875 7.4375 0.4375 C8.21150146 0.48060303 8.98550293 0.52370605 9.78295898 0.56811523 C14.88888889 0.88888889 14.88888889 0.88888889 16 2 C16.23678716 4.69235776 16.42198025 7.36498156 16.5625 10.0625 C16.60568359 10.82111328 16.64886719 11.57972656 16.69335938 12.36132812 C16.79973633 14.24065438 16.90039934 16.12030244 17 18 C16.34 17.67 15.68 17.34 15 17 C10.34005103 16.54741503 5.67317512 16.29738387 1 16 C0.67 10.72 0.34 5.44 0 0 Z " fill="#C3C3C3" transform="translate(36,38)"/>
<path d="M0 0 C0 5.28 0 10.56 0 16 C-2.454375 15.855625 -4.90875 15.71125 -7.4375 15.5625 C-8.21150146 15.51939697 -8.98550293 15.47629395 -9.78295898 15.43188477 C-14.88888889 15.11111111 -14.88888889 15.11111111 -16 14 C-16.07271741 11.64686445 -16.08370868 9.29166332 -16.0625 6.9375 C-16.05347656 5.64714844 -16.04445312 4.35679687 -16.03515625 3.02734375 C-16.02355469 2.02832031 -16.01195312 1.02929688 -16 0 C-13.7089095 -0.19441368 -11.41709663 -0.38033135 -9.125 -0.5625 C-7.21074219 -0.71912109 -7.21074219 -0.71912109 -5.2578125 -0.87890625 C-2 -1 -2 -1 0 0 Z M-15 1 C-15 5.29 -15 9.58 -15 14 C-10.71 14 -6.42 14 -2 14 C-2 9.71 -2 5.42 -2 1 C-6.29 1 -10.58 1 -15 1 Z " fill="#484848" transform="translate(53,146)"/>
<path d="M0 0 C2.454375 0.144375 4.90875 0.28875 7.4375 0.4375 C8.21150146 0.48060303 8.98550293 0.52370605 9.78295898 0.56811523 C14.88888889 0.88888889 14.88888889 0.88888889 16 2 C16.14426614 6.66845228 16.04208415 11.32865953 16 16 C10.72 16.33 5.44 16.66 0 17 C0 11.39 0 5.78 0 0 Z M2 2 C2 6.29 2 10.58 2 15 C6.29 15 10.58 15 15 15 C15 10.71 15 6.42 15 2 C10.71 2 6.42 2 2 2 Z " fill="#373737" transform="translate(147,38)"/>
<path d="M0 0 C0 0.66 0 1.32 0 2 C-4.95 1.67 -9.9 1.34 -15 1 C-15 0.67 -15 0.34 -15 0 C-12.87562788 -0.19448477 -10.75046809 -0.38038289 -8.625 -0.5625 C-7.44164062 -0.66691406 -6.25828125 -0.77132812 -5.0390625 -0.87890625 C-2 -1 -2 -1 0 0 Z " fill="#101010" transform="translate(53,160)"/>
<path d="M0 0 C0.99 0.33 1.98 0.66 3 1 C2.01 1.495 2.01 1.495 1 2 C1 2.99 1 3.98 1 5 C1.66 5.66 2.32 6.32 3 7 C1.68 6.67 0.36 6.34 -1 6 C-1.042721 4.33388095 -1.04063832 2.66617115 -1 1 C-0.67 0.67 -0.34 0.34 0 0 Z " fill="#000000" transform="translate(97,162)"/>
<path d="M0 0 C1.175625 0.5259375 1.175625 0.5259375 2.375 1.0625 C3.674375 1.5265625 3.674375 1.5265625 5 2 C5.66 1.67 6.32 1.34 7 1 C6.67 1.99 6.34 2.98 6 4 C4.35 3.67 2.7 3.34 1 3 C0.67 2.01 0.34 1.02 0 0 Z " fill="#000000" transform="translate(69,51)"/>
<path d="M0 0 C0 0.99 0 1.98 0 3 C0.3062434 4.33981486 0.63451555 5.67511887 1 7 C0.01 6.67 -0.98 6.34 -2 6 C-1.125 1.125 -1.125 1.125 0 0 Z " fill="#000000" transform="translate(91,146)"/>
<path d="M0 0 C0.66 0.33 1.32 0.66 2 1 C1.814375 1.61875 1.62875 2.2375 1.4375 2.875 C0.76313824 5.04160178 0.76313824 5.04160178 2 7 C1.01 6.67 0.02 6.34 -1 6 C-1.042721 4.33388095 -1.04063832 2.66617115 -1 1 C-0.67 0.67 -0.34 0.34 0 0 Z " fill="#000000" transform="translate(130,134)"/>
<path d="M0 0 C1.65 1.65 3.3 3.3 5 5 C3.68 4.67 2.36 4.34 1 4 C0.67 2.68 0.34 1.36 0 0 Z " fill="#000000" transform="translate(17,178)"/>
<path d="M0 0 C0.33 0.99 0.66 1.98 1 3 C0.34 3.66 -0.32 4.32 -1 5 C-1.99 4.67 -2.98 4.34 -4 4 C-2.68 2.68 -1.36 1.36 0 0 Z " fill="#000000" transform="translate(182,178)"/>
<path d="M0 0 C2.97 0.495 2.97 0.495 6 1 C6 1.66 6 2.32 6 3 C4.35 3 2.7 3 1 3 C0.67 2.01 0.34 1.02 0 0 Z " fill="#000000" transform="translate(42,125)"/>
<path d="M0 0 C1.65 0 3.3 0 5 0 C5 0.99 5 1.98 5 3 C3.35 2.67 1.7 2.34 0 2 C0 1.34 0 0.68 0 0 Z " fill="#000000" transform="translate(95,31)"/>
<path d="M0 0 C0.99 0.33 1.98 0.66 3 1 C0.525 2.485 0.525 2.485 -2 4 C-1.34 2.68 -0.68 1.36 0 0 Z " fill="#000000" transform="translate(188,161)"/>
<path d="M0 0 C0 0.99 0 1.98 0 3 C-1.32 3.33 -2.64 3.66 -4 4 C-2.68 2.68 -1.36 1.36 0 0 Z " fill="#000000" transform="translate(13,35)"/>
<path d="M0 0 C0.99 0.33 1.98 0.66 3 1 C0.525 2.485 0.525 2.485 -2 4 C-1.34 2.68 -0.68 1.36 0 0 Z " fill="#000000" transform="translate(19,17)"/>
<path d="M0 0 C1.98 0.99 1.98 0.99 4 2 C3.67 2.66 3.34 3.32 3 4 C2.01 2.68 1.02 1.36 0 0 Z " fill="#000000" transform="translate(35,186)"/>
<path d="M0 0 C0 0.99 0 1.98 0 3 C-1.32 2.67 -2.64 2.34 -4 2 C-2.68 1.34 -1.36 0.68 0 0 Z " fill="#000000" transform="translate(167,166)"/>
<path d="M0 0 C0.99 1.32 1.98 2.64 3 4 C2.01 4 1.02 4 0 4 C0 2.68 0 1.36 0 0 Z " fill="#000000" transform="translate(136,152)"/>
<path d="M0 0 C1.98 0.495 1.98 0.495 4 1 C2.35 1.66 0.7 2.32 -1 3 C-0.67 2.01 -0.34 1.02 0 0 Z " fill="#000000" transform="translate(115,132)"/>
<path d="M0 0 C2.475 0.495 2.475 0.495 5 1 C4.67 1.66 4.34 2.32 4 3 C2.68 2.01 1.36 1.02 0 0 Z " fill="#000000" transform="translate(163,127)"/>
<path d="M0 0 C2.475 0.99 2.475 0.99 5 2 C3.68 2.33 2.36 2.66 1 3 C0.67 2.01 0.34 1.02 0 0 Z " fill="#000000" transform="translate(88,82)"/>
<path d="M0 0 C0.66 0.33 1.32 0.66 2 1 C1.01 2.32 0.02 3.64 -1 5 C-0.67 3.35 -0.34 1.7 0 0 Z " fill="#000000" transform="translate(135,74)"/>
<path d="M0 0 C1.98 0.99 1.98 0.99 4 2 C3.67 2.66 3.34 3.32 3 4 C2.01 2.68 1.02 1.36 0 0 Z " fill="#000000" transform="translate(179,17)"/>
<path d="M0 0 C0 0.99 0 1.98 0 3 C-0.99 3.495 -0.99 3.495 -2 4 C-1.34 2.68 -0.68 1.36 0 0 Z " fill="#000000" transform="translate(76,153)"/>
<path d="M0 0 C0.66 0 1.32 0 2 0 C2 1.65 2 3.3 2 5 C0 1.125 0 1.125 0 0 Z " fill="#000000" transform="translate(99,147)"/>
<path d="M0 0 C0.66 0.33 1.32 0.66 2 1 C0.02 1.99 0.02 1.99 -2 3 C-1.34 2.01 -0.68 1.02 0 0 Z " fill="#000000" transform="translate(110,119)"/>
<path d="M0 0 C0 0.99 0 1.98 0 3 C-0.99 2.67 -1.98 2.34 -3 2 C-2.01 1.34 -1.02 0.68 0 0 Z " fill="#000000" transform="translate(121,66)"/>
<path d="M0 0 C0.66 0.33 1.32 0.66 2 1 C1.01 1.66 0.02 2.32 -1 3 C-0.67 2.01 -0.34 1.02 0 0 Z " fill="#000000" transform="translate(163,186)"/>
<path d="M0 0 C0.99 0.99 1.98 1.98 3 3 C2.01 2.67 1.02 2.34 0 2 C0 1.34 0 0.68 0 0 Z " fill="#000000" transform="translate(29,166)"/>
<path d="M0 0 C0 0.99 0 1.98 0 3 C-0.66 2.67 -1.32 2.34 -2 2 C-1.34 1.34 -0.68 0.68 0 0 Z " fill="#000000" transform="translate(59,166)"/>
<path d="M0 0 C0.99 0.33 1.98 0.66 3 1 C2.67 1.66 2.34 2.32 2 3 C1.34 2.01 0.68 1.02 0 0 Z " fill="#000000" transform="translate(11,162)"/>
<path d="M0 0 C0 0.99 0 1.98 0 3 C-0.66 2.67 -1.32 2.34 -2 2 C-1.34 1.34 -0.68 0.68 0 0 Z " fill="#000000" transform="translate(140,138)"/>
<path d="M0 0 C0.99 0.33 1.98 0.66 3 1 C2.67 1.66 2.34 2.32 2 3 C1.34 2.01 0.68 1.02 0 0 Z " fill="#000000" transform="translate(138,134)"/>
<path d="M0 0 C0.99 0.33 1.98 0.66 3 1 C2.67 1.66 2.34 2.32 2 3 C1.34 2.01 0.68 1.02 0 0 Z " fill="#000000" transform="translate(74,133)"/>
<path d="M0 0 C0 0.99 0 1.98 0 3 C-0.66 2.67 -1.32 2.34 -2 2 C-1.34 1.34 -0.68 0.68 0 0 Z " fill="#000000" transform="translate(144,123)"/>
<path d="M0 0 C0.99 0.495 0.99 0.495 2 1 C1.01 2.485 1.01 2.485 0 4 C0 2.68 0 1.36 0 0 Z " fill="#000000" transform="translate(68,116)"/>
<path d="M0 0 C0.99 0.33 1.98 0.66 3 1 C2.67 1.66 2.34 2.32 2 3 C1.34 2.01 0.68 1.02 0 0 Z " fill="#000000" transform="translate(109,76)"/>
<path d="M0 0 C0.66 0.33 1.32 0.66 2 1 C1.01 1.66 0.02 2.32 -1 3 C-0.67 2.01 -0.34 1.02 0 0 Z " fill="#000000" transform="translate(30,73)"/>
<path d="M0 0 C0.99 0.99 1.98 1.98 3 3 C2.01 2.67 1.02 2.34 0 2 C0 1.34 0 0.68 0 0 Z " fill="#000000" transform="translate(94,54)"/>
<path d="M0 0 C0.99 0.99 1.98 1.98 3 3 C2.01 2.67 1.02 2.34 0 2 C0 1.34 0 0.68 0 0 Z " fill="#000000" transform="translate(186,35)"/>
<path d="M0 0 C0.66 0.33 1.32 0.66 2 1 C1.01 1.66 0.02 2.32 -1 3 C-0.67 2.01 -0.34 1.02 0 0 Z " fill="#000000" transform="translate(141,31)"/>
<path d="M0 0 C0.99 0.33 1.98 0.66 3 1 C2.67 1.66 2.34 2.32 2 3 C1.34 2.01 0.68 1.02 0 0 Z " fill="#000000" transform="translate(57,31)"/>
<path d="M0 0 C0.66 0.33 1.32 0.66 2 1 C1.01 1.66 0.02 2.32 -1 3 C-0.67 2.01 -0.34 1.02 0 0 Z " fill="#000000" transform="translate(30,31)"/>
<path d="M0 0 C0.99 0.99 1.98 1.98 3 3 C2.01 2.67 1.02 2.34 0 2 C0 1.34 0 0.68 0 0 Z " fill="#000000" transform="translate(162,11)"/>
<path d="M0 0 C0 0.99 0 1.98 0 3 C-0.66 2.67 -1.32 2.34 -2 2 C-1.34 1.34 -0.68 0.68 0 0 Z " fill="#000000" transform="translate(37,11)"/>
<path d="M0 0 C0.99 0.33 1.98 0.66 3 1 C2.01 1.33 1.02 1.66 0 2 C0 1.34 0 0.68 0 0 Z " fill="#000000" transform="translate(0,100)"/>
<path d="M0 0 C0.66 0 1.32 0 2 0 C2 0.66 2 1.32 2 2 C1.34 2 0.68 2 0 2 C0 1.34 0 0.68 0 0 Z " fill="#000000" transform="translate(76,46)"/>
<path d="M0 0 C4 1 4 1 4 1 Z " fill="#000000" transform="translate(117,31)"/>
<path d="M0 0 C4 1 4 1 4 1 Z " fill="#000000" transform="translate(71,31)"/>
<path d="M0 0 C0.66 0.66 1.32 1.32 2 2 C1.34 2 0.68 2 0 2 C0 1.34 0 0.68 0 0 Z " fill="#000000" transform="translate(162,198)"/>
<path d="M0 0 C0.66 0.66 1.32 1.32 2 2 C1.34 2 0.68 2 0 2 C0 1.34 0 0.68 0 0 Z " fill="#000000" transform="translate(0,198)"/>
<path d="M0 0 C0.33 0.66 0.66 1.32 1 2 C0.34 1.67 -0.32 1.34 -1 1 C-0.67 0.67 -0.34 0.34 0 0 Z " fill="#000000" transform="translate(199,198)"/>
<path d="M0 0 C0.33 0.66 0.66 1.32 1 2 C0.34 1.67 -0.32 1.34 -1 1 C-0.67 0.67 -0.34 0.34 0 0 Z " fill="#000000" transform="translate(37,198)"/>
<path d="M0 0 C0.66 0 1.32 0 2 0 C1.67 0.66 1.34 1.32 1 2 C0.67 1.34 0.34 0.68 0 0 Z " fill="#000000" transform="translate(198,162)"/>
<path d="M0 0 C0.99 0.495 0.99 0.495 2 1 C1.01 1.495 1.01 1.495 0 2 C0 1.34 0 0.68 0 0 Z " fill="#000000" transform="translate(0,162)"/>
<path d="M0 0 C0.66 0.66 1.32 1.32 2 2 C1.34 2 0.68 2 0 2 C0 1.34 0 0.68 0 0 Z " fill="#000000" transform="translate(70,154)"/>
<path d="M0 0 C0.99 0.495 0.99 0.495 2 1 C1.01 1.495 1.01 1.495 0 2 C0 1.34 0 0.68 0 0 Z " fill="#000000" transform="translate(29,138)"/>
<path d="M0 0 C0.66 0.66 1.32 1.32 2 2 C1.34 2 0.68 2 0 2 C0 1.34 0 0.68 0 0 Z " fill="#000000" transform="translate(119,133)"/>
<path d="M0 0 C0.99 0.495 0.99 0.495 2 1 C1.01 1.495 1.01 1.495 0 2 C0 1.34 0 0.68 0 0 Z " fill="#000000" transform="translate(70,133)"/>
<path d="M0 0 C0.66 0.66 1.32 1.32 2 2 C1.34 2 0.68 2 0 2 C0 1.34 0 0.68 0 0 Z " fill="#000000" transform="translate(0,113)"/>
<path d="M0 0 C0.33 0.66 0.66 1.32 1 2 C0.34 1.67 -0.32 1.34 -1 1 C-0.67 0.67 -0.34 0.34 0 0 Z " fill="#000000" transform="translate(199,113)"/>
<path d="M0 0 C0.99 0.495 0.99 0.495 2 1 C1.01 1.495 1.01 1.495 0 2 C0 1.34 0 0.68 0 0 Z " fill="#000000" transform="translate(182,91)"/>
<path d="M0 0 C0.99 0.495 0.99 0.495 2 1 C1.01 1.495 1.01 1.495 0 2 C0 1.34 0 0.68 0 0 Z " fill="#000000" transform="translate(103,91)"/>
<path d="M0 0 C0.66 0 1.32 0 2 0 C1.67 0.66 1.34 1.32 1 2 C0.67 1.34 0.34 0.68 0 0 Z " fill="#000000" transform="translate(16,91)"/>
<path d="M0 0 C0.33 0.66 0.66 1.32 1 2 C0.34 1.67 -0.32 1.34 -1 1 C-0.67 0.67 -0.34 0.34 0 0 Z " fill="#000000" transform="translate(169,78)"/>
<path d="M0 0 C0.33 0.66 0.66 1.32 1 2 C0.34 1.67 -0.32 1.34 -1 1 C-0.67 0.67 -0.34 0.34 0 0 Z " fill="#000000" transform="translate(77,78)"/>
<path d="M0 0 C0.99 0.495 0.99 0.495 2 1 C1.01 1.495 1.01 1.495 0 2 C0 1.34 0 0.68 0 0 Z " fill="#000000" transform="translate(105,76)"/>
<path d="" fill="#000000" transform="translate(0,0)"/>
<path d="M0 0 C0.66 0 1.32 0 2 0 C1.67 0.66 1.34 1.32 1 2 C0.67 1.34 0.34 0.68 0 0 Z " fill="#000000" transform="translate(92,70)"/>
<path d="M0 0 C0.66 0.66 1.32 1.32 2 2 C1.34 2 0.68 2 0 2 C0 1.34 0 0.68 0 0 Z " fill="#000000" transform="translate(116,66)"/>
<path d="M0 0 C0.33 0.66 0.66 1.32 1 2 C0.34 1.67 -0.32 1.34 -1 1 C-0.67 0.67 -0.34 0.34 0 0 Z " fill="#000000" transform="translate(170,60)"/>
<path d="M0 0 C0.66 0.66 1.32 1.32 2 2 C1.34 2 0.68 2 0 2 C0 1.34 0 0.68 0 0 Z " fill="#000000" transform="translate(0,36)"/>
<path d="M0 0 C0.33 0.66 0.66 1.32 1 2 C0.34 1.67 -0.32 1.34 -1 1 C-0.67 0.67 -0.34 0.34 0 0 Z " fill="#000000" transform="translate(199,36)"/>
<path d="M0 0 C0.66 0 1.32 0 2 0 C1.67 0.66 1.34 1.32 1 2 C0.67 1.34 0.34 0.68 0 0 Z " fill="#000000" transform="translate(198,0)"/>
<path d="M0 0 C0.99 0.495 0.99 0.495 2 1 C1.01 1.495 1.01 1.495 0 2 C0 1.34 0 0.68 0 0 Z " fill="#000000" transform="translate(162,0)"/>
<path d="M0 0 C0.66 0 1.32 0 2 0 C1.67 0.66 1.34 1.32 1 2 C0.67 1.34 0.34 0.68 0 0 Z " fill="#000000" transform="translate(36,0)"/>
<path d="M0 0 C0.99 0.495 0.99 0.495 2 1 C1.01 1.495 1.01 1.495 0 2 C0 1.34 0 0.68 0 0 Z " fill="#000000" transform="translate(0,0)"/>
<path d="" fill="#000000" transform="translate(0,0)"/>
<path d="" fill="#000000" transform="translate(0,0)"/>
<path d="M0 0 C2 1 2 1 2 1 Z " fill="#000000" transform="translate(117,168)"/>
<path d="" fill="#000000" transform="translate(0,0)"/>
<path d="M0 0 C2 1 2 1 2 1 Z " fill="#000000" transform="translate(196,161)"/>
<path d="" fill="#000000" transform="translate(0,0)"/>
<path d="M0 0 C2 1 2 1 2 1 Z " fill="#000000" transform="translate(2,161)"/>
<path d="" fill="#000000" transform="translate(0,0)"/>
<path d="M0 0 C2 1 2 1 2 1 Z " fill="#000000" transform="translate(138,150)"/>
<path d="" fill="#000000" transform="translate(0,0)"/>
<path d="" fill="#000000" transform="translate(0,0)"/>
<path d="" fill="#000000" transform="translate(0,0)"/>
<path d="M0 0 C2 1 2 1 2 1 Z " fill="#000000" transform="translate(139,125)"/>
<path d="" fill="#000000" transform="translate(0,0)"/>
<path d="" fill="#000000" transform="translate(0,0)"/>
<path d="M0 0 C2 1 2 1 2 1 Z " fill="#000000" transform="translate(70,121)"/>
<path d="M0 0 C2 1 2 1 2 1 Z " fill="#000000" transform="translate(197,100)"/>
<path d="" fill="#000000" transform="translate(0,0)"/>
<path d="" fill="#000000" transform="translate(0,0)"/>
<path d="M0 0 C2 1 2 1 2 1 Z " fill="#000000" transform="translate(136,80)"/>
<path d="M0 0 C2 1 2 1 2 1 Z " fill="#000000" transform="translate(30,79)"/>
<path d="" fill="#000000" transform="translate(0,0)"/>
<path d="" fill="#000000" transform="translate(0,0)"/>
<path d="M0 0 C2 1 2 1 2 1 Z " fill="#000000" transform="translate(75,73)"/>
<path d="M0 0 C2 1 2 1 2 1 Z " fill="#000000" transform="translate(89,70)"/>
<path d="M0 0 C2 1 2 1 2 1 Z " fill="#000000" transform="translate(57,61)"/>
<path d="" fill="#000000" transform="translate(0,0)"/>
<path d="" fill="#000000" transform="translate(0,0)"/>
<path d="M0 0 C2 1 2 1 2 1 Z " fill="#000000" transform="translate(98,56)"/>
<path d="" fill="#000000" transform="translate(0,0)"/>
<path d="" fill="#000000" transform="translate(0,0)"/>
<path d="" fill="#000000" transform="translate(0,0)"/>
<path d="" fill="#000000" transform="translate(0,0)"/>
<path d="" fill="#000000" transform="translate(0,0)"/>
<path d="" fill="#000000" transform="translate(0,0)"/>
<path d="M0 0 C2 1 2 1 2 1 Z " fill="#000000" transform="translate(196,38)"/>
<path d="M0 0 C2 1 2 1 2 1 Z " fill="#000000" transform="translate(189,38)"/>
<path d="M0 0 C2 1 2 1 2 1 Z " fill="#000000" transform="translate(2,38)"/>
<path d="" fill="#000000" transform="translate(0,0)"/>
<path d="" fill="#000000" transform="translate(0,0)"/>
<path d="" fill="#000000" transform="translate(0,0)"/>
<path d="M0 0 C2 1 2 1 2 1 Z " fill="#000000" transform="translate(168,31)"/>
<path d="" fill="#000000" transform="translate(0,0)"/>
<path d="" fill="#000000" transform="translate(0,0)"/>
<path d="" fill="#000000" transform="translate(0,0)"/>
<path d="" fill="#000000" transform="translate(0,0)"/>
<path d="" fill="#000000" transform="translate(0,0)"/>
<path d="" fill="#000000" transform="translate(0,0)"/>
<path d="" fill="#000000" transform="translate(0,0)"/>
<path d="" fill="#000000" transform="translate(0,0)"/>
<path d="" fill="#000000" transform="translate(0,0)"/>
<path d="" fill="#000000" transform="translate(0,0)"/>
<path d="" fill="#000000" transform="translate(0,0)"/>
<path d="" fill="#000000" transform="translate(0,0)"/>
<path d="" fill="#000000" transform="translate(0,0)"/>
<path d="" fill="#000000" transform="translate(0,0)"/>
<path d="" fill="#000000" transform="translate(0,0)"/>
<path d="" fill="#000000" transform="translate(0,0)"/>
<path d="" fill="#000000" transform="translate(0,0)"/>
<path d="" fill="#000000" transform="translate(0,0)"/>
<path d="" fill="#000000" transform="translate(0,0)"/>
<path d="" fill="#000000" transform="translate(0,0)"/>
<path d="" fill="#000000" transform="translate(0,0)"/>
<path d="" fill="#000000" transform="translate(0,0)"/>
<path d="" fill="#000000" transform="translate(0,0)"/>
<path d="" fill="#000000" transform="translate(0,0)"/>
<path d="" fill="#000000" transform="translate(0,0)"/>
<path d="" fill="#000000" transform="translate(0,0)"/>
<path d="" fill="#000000" transform="translate(0,0)"/>
<path d="" fill="#000000" transform="translate(0,0)"/>
<path d="" fill="#000000" transform="translate(0,0)"/>
<path d="" fill="#000000" transform="translate(0,0)"/>
<path d="" fill="#000000" transform="translate(0,0)"/>
<path d="" fill="#000000" transform="translate(0,0)"/>
<path d="" fill="#000000" transform="translate(0,0)"/>
<path d="" fill="#000000" transform="translate(0,0)"/>
<path d="" fill="#000000" transform="translate(0,0)"/>
<path d="" fill="#000000" transform="translate(0,0)"/>
<path d="" fill="#000000" transform="translate(0,0)"/>
<path d="" fill="#000000" transform="translate(0,0)"/>
<path d="" fill="#000000" transform="translate(0,0)"/>
<path d="" fill="#000000" transform="translate(0,0)"/>
<path d="" fill="#000000" transform="translate(0,0)"/>
<path d="" fill="#000000" transform="translate(0,0)"/>
</svg>
